<mxfile host="app.diagrams.net" agent="Mozilla/5.0 (Windows NT 10.0; Win64; x64) AppleWebKit/537.36 (KHTML, like Gecko) Chrome/138.0.0.0 Safari/537.36" version="28.0.7">
  <diagram name="Page-1" id="keCYQJK2TOxoG9gc8rmm">
    <mxGraphModel dx="854" dy="386" grid="0" gridSize="10" guides="1" tooltips="1" connect="1" arrows="1" fold="1" page="1" pageScale="1" pageWidth="850" pageHeight="1100" math="0" shadow="0">
      <root>
        <mxCell id="0" />
        <mxCell id="1" parent="0" />
        <mxCell id="SUS-D7441Kwhzc1_D773-60" style="edgeStyle=orthogonalEdgeStyle;rounded=0;orthogonalLoop=1;jettySize=auto;html=1;entryX=1;entryY=0.5;entryDx=0;entryDy=0;" parent="1" source="SUS-D7441Kwhzc1_D773-1" target="SUS-D7441Kwhzc1_D773-12" edge="1">
          <mxGeometry relative="1" as="geometry" />
        </mxCell>
        <mxCell id="SUS-D7441Kwhzc1_D773-1" value="UserDB" style="image;aspect=fixed;perimeter=ellipsePerimeter;html=1;align=center;shadow=0;dashed=0;spacingTop=3;image=img/lib/active_directory/databases.svg;" parent="1" vertex="1">
          <mxGeometry x="14" y="72" width="109.18" height="107" as="geometry" />
        </mxCell>
        <mxCell id="SUS-D7441Kwhzc1_D773-27" style="edgeStyle=orthogonalEdgeStyle;rounded=0;orthogonalLoop=1;jettySize=auto;html=1;entryX=0;entryY=0.5;entryDx=0;entryDy=0;" parent="1" source="SUS-D7441Kwhzc1_D773-4" target="SUS-D7441Kwhzc1_D773-5" edge="1">
          <mxGeometry relative="1" as="geometry" />
        </mxCell>
        <mxCell id="SUS-D7441Kwhzc1_D773-4" value="Login&lt;div&gt;Page&lt;/div&gt;" style="image;aspect=fixed;perimeter=ellipsePerimeter;html=1;align=center;shadow=0;dashed=0;spacingTop=3;image=img/lib/active_directory/home_page.svg;" parent="1" vertex="1">
          <mxGeometry x="52" y="238" width="50" height="45" as="geometry" />
        </mxCell>
        <mxCell id="SUS-D7441Kwhzc1_D773-28" style="edgeStyle=orthogonalEdgeStyle;rounded=0;orthogonalLoop=1;jettySize=auto;html=1;entryX=0;entryY=0.5;entryDx=0;entryDy=0;" parent="1" source="SUS-D7441Kwhzc1_D773-5" target="SUS-D7441Kwhzc1_D773-6" edge="1">
          <mxGeometry relative="1" as="geometry" />
        </mxCell>
        <mxCell id="SUS-D7441Kwhzc1_D773-33" style="edgeStyle=orthogonalEdgeStyle;rounded=0;orthogonalLoop=1;jettySize=auto;html=1;entryX=0.5;entryY=0;entryDx=0;entryDy=0;" parent="1" source="SUS-D7441Kwhzc1_D773-5" target="SUS-D7441Kwhzc1_D773-8" edge="1">
          <mxGeometry relative="1" as="geometry" />
        </mxCell>
        <mxCell id="SUS-D7441Kwhzc1_D773-5" value="Customer&lt;div&gt;Page&lt;/div&gt;" style="image;aspect=fixed;perimeter=ellipsePerimeter;html=1;align=center;shadow=0;dashed=0;spacingTop=3;image=img/lib/active_directory/home_page.svg;" parent="1" vertex="1">
          <mxGeometry x="160" y="280" width="50" height="45" as="geometry" />
        </mxCell>
        <mxCell id="SUS-D7441Kwhzc1_D773-29" style="edgeStyle=orthogonalEdgeStyle;rounded=0;orthogonalLoop=1;jettySize=auto;html=1;" parent="1" source="SUS-D7441Kwhzc1_D773-6" target="SUS-D7441Kwhzc1_D773-5" edge="1">
          <mxGeometry relative="1" as="geometry" />
        </mxCell>
        <mxCell id="SUS-D7441Kwhzc1_D773-30" value="Movie" style="edgeLabel;html=1;align=center;verticalAlign=middle;resizable=0;points=[];" parent="SUS-D7441Kwhzc1_D773-29" vertex="1" connectable="0">
          <mxGeometry x="0.1556" y="-3" relative="1" as="geometry">
            <mxPoint x="2" as="offset" />
          </mxGeometry>
        </mxCell>
        <mxCell id="SUS-D7441Kwhzc1_D773-41" style="edgeStyle=orthogonalEdgeStyle;rounded=0;orthogonalLoop=1;jettySize=auto;html=1;" parent="1" source="SUS-D7441Kwhzc1_D773-6" target="SUS-D7441Kwhzc1_D773-10" edge="1">
          <mxGeometry relative="1" as="geometry" />
        </mxCell>
        <mxCell id="SUS-D7441Kwhzc1_D773-42" value="Showtime" style="edgeLabel;html=1;align=center;verticalAlign=middle;resizable=0;points=[];" parent="SUS-D7441Kwhzc1_D773-41" vertex="1" connectable="0">
          <mxGeometry x="-0.0891" relative="1" as="geometry">
            <mxPoint as="offset" />
          </mxGeometry>
        </mxCell>
        <mxCell id="SUS-D7441Kwhzc1_D773-6" value="Movie&lt;div&gt;Selection&lt;/div&gt;" style="image;aspect=fixed;perimeter=ellipsePerimeter;html=1;align=center;shadow=0;dashed=0;spacingTop=3;image=img/lib/active_directory/home_page.svg;" parent="1" vertex="1">
          <mxGeometry x="299" y="280" width="50" height="45" as="geometry" />
        </mxCell>
        <mxCell id="SUS-D7441Kwhzc1_D773-34" style="edgeStyle=orthogonalEdgeStyle;rounded=0;orthogonalLoop=1;jettySize=auto;html=1;entryX=0.5;entryY=1;entryDx=0;entryDy=0;" parent="1" source="Oippb7x4uc9pu7MZKOY0-3" target="SUS-D7441Kwhzc1_D773-6" edge="1">
          <mxGeometry relative="1" as="geometry">
            <mxPoint x="324" y="418" as="targetPoint" />
          </mxGeometry>
        </mxCell>
        <mxCell id="SUS-D7441Kwhzc1_D773-39" style="edgeStyle=orthogonalEdgeStyle;rounded=0;orthogonalLoop=1;jettySize=auto;html=1;" parent="1" source="SUS-D7441Kwhzc1_D773-7" target="SUS-D7441Kwhzc1_D773-4" edge="1">
          <mxGeometry relative="1" as="geometry" />
        </mxCell>
        <mxCell id="SUS-D7441Kwhzc1_D773-32" style="edgeStyle=orthogonalEdgeStyle;rounded=0;orthogonalLoop=1;jettySize=auto;html=1;" parent="1" source="SUS-D7441Kwhzc1_D773-8" target="SUS-D7441Kwhzc1_D773-5" edge="1">
          <mxGeometry relative="1" as="geometry" />
        </mxCell>
        <mxCell id="SUS-D7441Kwhzc1_D773-55" style="edgeStyle=orthogonalEdgeStyle;rounded=0;orthogonalLoop=1;jettySize=auto;html=1;" parent="1" source="SUS-D7441Kwhzc1_D773-8" target="SUS-D7441Kwhzc1_D773-12" edge="1">
          <mxGeometry relative="1" as="geometry">
            <Array as="points">
              <mxPoint x="588" y="598" />
            </Array>
          </mxGeometry>
        </mxCell>
        <mxCell id="SUS-D7441Kwhzc1_D773-8" value="TicketDB" style="image;aspect=fixed;perimeter=ellipsePerimeter;html=1;align=center;shadow=0;dashed=0;spacingTop=3;image=img/lib/active_directory/databases.svg;" parent="1" vertex="1">
          <mxGeometry x="118" y="550" width="97" height="95.06" as="geometry" />
        </mxCell>
        <mxCell id="SUS-D7441Kwhzc1_D773-10" value="Time Selection" style="image;aspect=fixed;perimeter=ellipsePerimeter;html=1;align=center;shadow=0;dashed=0;spacingTop=3;image=img/lib/active_directory/home_page.svg;" parent="1" vertex="1">
          <mxGeometry x="450" y="280" width="50" height="45" as="geometry" />
        </mxCell>
        <mxCell id="SUS-D7441Kwhzc1_D773-46" style="edgeStyle=orthogonalEdgeStyle;rounded=0;orthogonalLoop=1;jettySize=auto;html=1;entryX=0.5;entryY=0;entryDx=0;entryDy=0;" parent="1" source="SUS-D7441Kwhzc1_D773-11" target="SUS-D7441Kwhzc1_D773-12" edge="1">
          <mxGeometry relative="1" as="geometry" />
        </mxCell>
        <mxCell id="SUS-D7441Kwhzc1_D773-47" value="Payment" style="edgeLabel;html=1;align=center;verticalAlign=middle;resizable=0;points=[];" parent="SUS-D7441Kwhzc1_D773-46" vertex="1" connectable="0">
          <mxGeometry x="0.0222" y="-1" relative="1" as="geometry">
            <mxPoint as="offset" />
          </mxGeometry>
        </mxCell>
        <mxCell id="SUS-D7441Kwhzc1_D773-53" style="edgeStyle=orthogonalEdgeStyle;rounded=0;orthogonalLoop=1;jettySize=auto;html=1;entryX=0.5;entryY=1;entryDx=0;entryDy=0;" parent="1" source="SUS-D7441Kwhzc1_D773-11" target="SUS-D7441Kwhzc1_D773-52" edge="1">
          <mxGeometry relative="1" as="geometry" />
        </mxCell>
        <mxCell id="SUS-D7441Kwhzc1_D773-11" value="Seat Selection" style="image;aspect=fixed;perimeter=ellipsePerimeter;html=1;align=center;shadow=0;dashed=0;spacingTop=3;image=img/lib/active_directory/home_page.svg;" parent="1" vertex="1">
          <mxGeometry x="570" y="280" width="50" height="45" as="geometry" />
        </mxCell>
        <mxCell id="SUS-D7441Kwhzc1_D773-12" value="Pay Page" style="image;aspect=fixed;perimeter=ellipsePerimeter;html=1;align=center;shadow=0;dashed=0;spacingTop=3;image=img/lib/active_directory/home_page.svg;" parent="1" vertex="1">
          <mxGeometry x="565" y="507" width="50" height="45" as="geometry" />
        </mxCell>
        <mxCell id="SUS-D7441Kwhzc1_D773-40" value="" style="endArrow=classic;html=1;rounded=0;" parent="1" edge="1">
          <mxGeometry width="50" height="50" relative="1" as="geometry">
            <mxPoint x="219" y="484.21" as="sourcePoint" />
            <mxPoint x="299" y="484.21" as="targetPoint" />
            <Array as="points">
              <mxPoint x="239" y="484.21" />
            </Array>
          </mxGeometry>
        </mxCell>
        <mxCell id="SUS-D7441Kwhzc1_D773-48" value="MovieDB" style="image;aspect=fixed;perimeter=ellipsePerimeter;html=1;align=center;shadow=0;dashed=0;spacingTop=3;image=img/lib/active_directory/databases.svg;" parent="1" vertex="1">
          <mxGeometry x="362" y="127.46" width="83" height="81.34" as="geometry" />
        </mxCell>
        <mxCell id="SUS-D7441Kwhzc1_D773-49" value="" style="endArrow=classic;startArrow=classic;html=1;rounded=0;" parent="1" edge="1">
          <mxGeometry width="50" height="50" relative="1" as="geometry">
            <mxPoint x="330" y="278.8" as="sourcePoint" />
            <mxPoint x="370" y="208.8" as="targetPoint" />
          </mxGeometry>
        </mxCell>
        <mxCell id="SUS-D7441Kwhzc1_D773-51" value="" style="endArrow=classic;startArrow=classic;html=1;rounded=0;" parent="1" edge="1">
          <mxGeometry width="50" height="50" relative="1" as="geometry">
            <mxPoint x="470" y="280" as="sourcePoint" />
            <mxPoint x="440" y="200" as="targetPoint" />
            <Array as="points">
              <mxPoint x="460" y="250" />
            </Array>
          </mxGeometry>
        </mxCell>
        <mxCell id="SUS-D7441Kwhzc1_D773-54" style="edgeStyle=orthogonalEdgeStyle;rounded=0;orthogonalLoop=1;jettySize=auto;html=1;entryX=0.5;entryY=0;entryDx=0;entryDy=0;" parent="1" source="SUS-D7441Kwhzc1_D773-52" target="SUS-D7441Kwhzc1_D773-11" edge="1">
          <mxGeometry relative="1" as="geometry" />
        </mxCell>
        <mxCell id="SUS-D7441Kwhzc1_D773-52" value="SeatDB" style="image;aspect=fixed;perimeter=ellipsePerimeter;html=1;align=center;shadow=0;dashed=0;spacingTop=3;image=img/lib/active_directory/databases.svg;" parent="1" vertex="1">
          <mxGeometry x="565" y="150" width="60" height="58.8" as="geometry" />
        </mxCell>
        <mxCell id="SUS-D7441Kwhzc1_D773-57" value="" style="endArrow=classic;html=1;rounded=0;" parent="1" edge="1">
          <mxGeometry width="50" height="50" relative="1" as="geometry">
            <mxPoint x="255" y="597.11" as="sourcePoint" />
            <mxPoint x="215" y="597.11" as="targetPoint" />
          </mxGeometry>
        </mxCell>
        <mxCell id="SUS-D7441Kwhzc1_D773-70" value="" style="endArrow=none;html=1;rounded=0;" parent="1" edge="1">
          <mxGeometry width="50" height="50" relative="1" as="geometry">
            <mxPoint x="324" y="577" as="sourcePoint" />
            <mxPoint x="686" y="575" as="targetPoint" />
          </mxGeometry>
        </mxCell>
        <mxCell id="SUS-D7441Kwhzc1_D773-71" value="" style="endArrow=none;html=1;rounded=0;" parent="1" edge="1">
          <mxGeometry width="50" height="50" relative="1" as="geometry">
            <mxPoint x="686" y="576" as="sourcePoint" />
            <mxPoint x="686" y="300" as="targetPoint" />
          </mxGeometry>
        </mxCell>
        <mxCell id="SUS-D7441Kwhzc1_D773-73" value="" style="endArrow=classic;html=1;rounded=0;" parent="1" target="SUS-D7441Kwhzc1_D773-11" edge="1">
          <mxGeometry width="50" height="50" relative="1" as="geometry">
            <mxPoint x="686" y="302" as="sourcePoint" />
            <mxPoint x="625" y="302" as="targetPoint" />
          </mxGeometry>
        </mxCell>
        <mxCell id="SUS-D7441Kwhzc1_D773-74" value="" style="endArrow=classic;html=1;rounded=0;exitX=0.04;exitY=0;exitDx=0;exitDy=0;exitPerimeter=0;" parent="1" edge="1" source="SUS-D7441Kwhzc1_D773-7">
          <mxGeometry width="50" height="50" relative="1" as="geometry">
            <mxPoint x="297" y="409" as="sourcePoint" />
            <mxPoint x="207" y="320" as="targetPoint" />
          </mxGeometry>
        </mxCell>
        <mxCell id="SUS-D7441Kwhzc1_D773-75" value="" style="endArrow=classic;html=1;rounded=0;exitX=0.888;exitY=0.022;exitDx=0;exitDy=0;entryX=0;entryY=0.75;entryDx=0;entryDy=0;exitPerimeter=0;" parent="1" source="SUS-D7441Kwhzc1_D773-7" target="SUS-D7441Kwhzc1_D773-10" edge="1">
          <mxGeometry width="50" height="50" relative="1" as="geometry">
            <mxPoint x="474" y="456" as="sourcePoint" />
            <mxPoint x="384" y="367" as="targetPoint" />
          </mxGeometry>
        </mxCell>
        <mxCell id="SUS-D7441Kwhzc1_D773-76" value="&lt;b&gt;User Accounts&lt;/b&gt;&lt;div&gt;&lt;b&gt;Payment History&lt;/b&gt;&lt;/div&gt;&lt;div&gt;&lt;b&gt;Reward Points&lt;/b&gt;&lt;/div&gt;" style="text;html=1;align=center;verticalAlign=middle;whiteSpace=wrap;rounded=0;" parent="1" vertex="1">
          <mxGeometry x="35" y="42" width="60" height="30" as="geometry" />
        </mxCell>
        <mxCell id="SUS-D7441Kwhzc1_D773-77" value="&lt;b&gt;Ticket information&lt;/b&gt;&lt;div&gt;&lt;b&gt;shoppingcart&lt;/b&gt;&lt;/div&gt;" style="text;html=1;align=center;verticalAlign=middle;whiteSpace=wrap;rounded=0;" parent="1" vertex="1">
          <mxGeometry x="8" y="578" width="110" height="30" as="geometry" />
        </mxCell>
        <mxCell id="SUS-D7441Kwhzc1_D773-78" value="" style="endArrow=classic;html=1;rounded=0;" parent="1" edge="1">
          <mxGeometry width="50" height="50" relative="1" as="geometry">
            <mxPoint x="359" y="302" as="sourcePoint" />
            <mxPoint x="332" y="302" as="targetPoint" />
          </mxGeometry>
        </mxCell>
        <mxCell id="SUS-D7441Kwhzc1_D773-79" value="" style="endArrow=classic;startArrow=classic;html=1;rounded=0;entryX=0;entryY=0.5;entryDx=0;entryDy=0;" parent="1" target="SUS-D7441Kwhzc1_D773-11" edge="1">
          <mxGeometry width="50" height="50" relative="1" as="geometry">
            <mxPoint x="494" y="301" as="sourcePoint" />
            <mxPoint x="570" y="299" as="targetPoint" />
          </mxGeometry>
        </mxCell>
        <mxCell id="SUS-D7441Kwhzc1_D773-80" value="Seat" style="edgeLabel;html=1;align=center;verticalAlign=middle;resizable=0;points=[];" parent="SUS-D7441Kwhzc1_D773-79" vertex="1" connectable="0">
          <mxGeometry x="-0.1759" y="1" relative="1" as="geometry">
            <mxPoint as="offset" />
          </mxGeometry>
        </mxCell>
        <mxCell id="SUS-D7441Kwhzc1_D773-82" value="&lt;b&gt;Available Seats,&lt;/b&gt;&lt;div&gt;&lt;b&gt;Seat Types&lt;/b&gt;&lt;/div&gt;" style="text;html=1;align=center;verticalAlign=middle;whiteSpace=wrap;rounded=0;" parent="1" vertex="1">
          <mxGeometry x="565" y="127" width="60" height="30" as="geometry" />
        </mxCell>
        <mxCell id="SUS-D7441Kwhzc1_D773-83" value="&lt;b&gt;List of Movies,&lt;/b&gt;&lt;div&gt;&lt;b&gt;Theater locations&lt;/b&gt;&lt;/div&gt;" style="text;html=1;align=center;verticalAlign=middle;whiteSpace=wrap;rounded=0;" parent="1" vertex="1">
          <mxGeometry x="373.5" y="97.46000000000001" width="60" height="30" as="geometry" />
        </mxCell>
        <mxCell id="Oippb7x4uc9pu7MZKOY0-1" value="" style="endArrow=none;html=1;rounded=0;" edge="1" parent="1" target="SUS-D7441Kwhzc1_D773-7">
          <mxGeometry width="50" height="50" relative="1" as="geometry">
            <mxPoint x="324" y="578" as="sourcePoint" />
            <mxPoint x="323.5" y="446" as="targetPoint" />
          </mxGeometry>
        </mxCell>
        <mxCell id="SUS-D7441Kwhzc1_D773-7" value="Admin Page" style="image;aspect=fixed;perimeter=ellipsePerimeter;html=1;align=center;shadow=0;dashed=0;spacingTop=3;image=img/lib/active_directory/home_page.svg;" parent="1" vertex="1">
          <mxGeometry x="299" y="462" width="50" height="45" as="geometry" />
        </mxCell>
        <mxCell id="Oippb7x4uc9pu7MZKOY0-4" value="" style="edgeStyle=orthogonalEdgeStyle;rounded=0;orthogonalLoop=1;jettySize=auto;html=1;" edge="1" parent="1" source="SUS-D7441Kwhzc1_D773-7" target="Oippb7x4uc9pu7MZKOY0-3">
          <mxGeometry relative="1" as="geometry">
            <mxPoint x="324" y="441" as="sourcePoint" />
            <mxPoint x="324" y="418" as="targetPoint" />
          </mxGeometry>
        </mxCell>
        <mxCell id="Oippb7x4uc9pu7MZKOY0-3" value="Theater&lt;div&gt;&lt;br&gt;&lt;/div&gt;" style="image;aspect=fixed;perimeter=ellipsePerimeter;html=1;align=center;shadow=0;dashed=0;spacingTop=3;image=img/lib/active_directory/home_page.svg;" vertex="1" parent="1">
          <mxGeometry x="299" y="365" width="50" height="45" as="geometry" />
        </mxCell>
        <mxCell id="Oippb7x4uc9pu7MZKOY0-6" value="" style="endArrow=classic;html=1;rounded=0;exitX=1;exitY=0.5;exitDx=0;exitDy=0;entryX=0.25;entryY=0;entryDx=0;entryDy=0;" edge="1" parent="1" source="SUS-D7441Kwhzc1_D773-7" target="SUS-D7441Kwhzc1_D773-12">
          <mxGeometry width="50" height="50" relative="1" as="geometry">
            <mxPoint x="376" y="509" as="sourcePoint" />
            <mxPoint x="426" y="459" as="targetPoint" />
            <Array as="points">
              <mxPoint x="579" y="487" />
            </Array>
          </mxGeometry>
        </mxCell>
        <mxCell id="Oippb7x4uc9pu7MZKOY0-7" value="" style="endArrow=classic;html=1;rounded=0;exitX=0;exitY=0.5;exitDx=0;exitDy=0;entryX=0.25;entryY=1;entryDx=0;entryDy=0;" edge="1" parent="1" source="SUS-D7441Kwhzc1_D773-12" target="SUS-D7441Kwhzc1_D773-1">
          <mxGeometry width="50" height="50" relative="1" as="geometry">
            <mxPoint x="298" y="407" as="sourcePoint" />
            <mxPoint x="26" y="530" as="targetPoint" />
            <Array as="points">
              <mxPoint x="43" y="530" />
            </Array>
          </mxGeometry>
        </mxCell>
        <mxCell id="Oippb7x4uc9pu7MZKOY0-8" value="" style="endArrow=classic;html=1;rounded=0;exitX=0.5;exitY=0;exitDx=0;exitDy=0;entryX=0.58;entryY=0.992;entryDx=0;entryDy=0;entryPerimeter=0;" edge="1" parent="1" source="SUS-D7441Kwhzc1_D773-4" target="SUS-D7441Kwhzc1_D773-1">
          <mxGeometry width="50" height="50" relative="1" as="geometry">
            <mxPoint x="298" y="268" as="sourcePoint" />
            <mxPoint x="348" y="218" as="targetPoint" />
          </mxGeometry>
        </mxCell>
        <mxCell id="Oippb7x4uc9pu7MZKOY0-9" style="edgeStyle=orthogonalEdgeStyle;rounded=0;orthogonalLoop=1;jettySize=auto;html=1;entryX=1;entryY=0.5;entryDx=0;entryDy=0;" edge="1" parent="1" source="Oippb7x4uc9pu7MZKOY0-10" target="Oippb7x4uc9pu7MZKOY0-31">
          <mxGeometry relative="1" as="geometry" />
        </mxCell>
        <mxCell id="Oippb7x4uc9pu7MZKOY0-10" value="UserDB" style="image;aspect=fixed;perimeter=ellipsePerimeter;html=1;align=center;shadow=0;dashed=0;spacingTop=3;image=img/lib/active_directory/databases.svg;" vertex="1" parent="1">
          <mxGeometry x="14" y="72" width="109.18" height="107" as="geometry" />
        </mxCell>
        <mxCell id="Oippb7x4uc9pu7MZKOY0-11" style="edgeStyle=orthogonalEdgeStyle;rounded=0;orthogonalLoop=1;jettySize=auto;html=1;entryX=0;entryY=0.5;entryDx=0;entryDy=0;" edge="1" parent="1" source="Oippb7x4uc9pu7MZKOY0-12" target="Oippb7x4uc9pu7MZKOY0-15">
          <mxGeometry relative="1" as="geometry" />
        </mxCell>
        <mxCell id="Oippb7x4uc9pu7MZKOY0-12" value="Login&lt;div&gt;Page&lt;/div&gt;" style="image;aspect=fixed;perimeter=ellipsePerimeter;html=1;align=center;shadow=0;dashed=0;spacingTop=3;image=img/lib/active_directory/home_page.svg;" vertex="1" parent="1">
          <mxGeometry x="52" y="238" width="50" height="45" as="geometry" />
        </mxCell>
        <mxCell id="Oippb7x4uc9pu7MZKOY0-13" style="edgeStyle=orthogonalEdgeStyle;rounded=0;orthogonalLoop=1;jettySize=auto;html=1;entryX=0;entryY=0.5;entryDx=0;entryDy=0;" edge="1" parent="1" source="Oippb7x4uc9pu7MZKOY0-15" target="Oippb7x4uc9pu7MZKOY0-20">
          <mxGeometry relative="1" as="geometry" />
        </mxCell>
        <mxCell id="Oippb7x4uc9pu7MZKOY0-14" style="edgeStyle=orthogonalEdgeStyle;rounded=0;orthogonalLoop=1;jettySize=auto;html=1;entryX=0.5;entryY=0;entryDx=0;entryDy=0;" edge="1" parent="1" source="Oippb7x4uc9pu7MZKOY0-15" target="Oippb7x4uc9pu7MZKOY0-25">
          <mxGeometry relative="1" as="geometry" />
        </mxCell>
        <mxCell id="Oippb7x4uc9pu7MZKOY0-15" value="Customer&lt;div&gt;Page&lt;/div&gt;" style="image;aspect=fixed;perimeter=ellipsePerimeter;html=1;align=center;shadow=0;dashed=0;spacingTop=3;image=img/lib/active_directory/home_page.svg;" vertex="1" parent="1">
          <mxGeometry x="160" y="280" width="50" height="45" as="geometry" />
        </mxCell>
        <mxCell id="Oippb7x4uc9pu7MZKOY0-16" style="edgeStyle=orthogonalEdgeStyle;rounded=0;orthogonalLoop=1;jettySize=auto;html=1;" edge="1" parent="1" source="Oippb7x4uc9pu7MZKOY0-20" target="Oippb7x4uc9pu7MZKOY0-15">
          <mxGeometry relative="1" as="geometry" />
        </mxCell>
        <mxCell id="Oippb7x4uc9pu7MZKOY0-17" value="Movie" style="edgeLabel;html=1;align=center;verticalAlign=middle;resizable=0;points=[];" vertex="1" connectable="0" parent="Oippb7x4uc9pu7MZKOY0-16">
          <mxGeometry x="0.1556" y="-3" relative="1" as="geometry">
            <mxPoint x="2" as="offset" />
          </mxGeometry>
        </mxCell>
        <mxCell id="Oippb7x4uc9pu7MZKOY0-18" style="edgeStyle=orthogonalEdgeStyle;rounded=0;orthogonalLoop=1;jettySize=auto;html=1;" edge="1" parent="1" source="Oippb7x4uc9pu7MZKOY0-20" target="Oippb7x4uc9pu7MZKOY0-26">
          <mxGeometry relative="1" as="geometry" />
        </mxCell>
        <mxCell id="Oippb7x4uc9pu7MZKOY0-19" value="Showtime" style="edgeLabel;html=1;align=center;verticalAlign=middle;resizable=0;points=[];" vertex="1" connectable="0" parent="Oippb7x4uc9pu7MZKOY0-18">
          <mxGeometry x="-0.0891" relative="1" as="geometry">
            <mxPoint as="offset" />
          </mxGeometry>
        </mxCell>
        <mxCell id="Oippb7x4uc9pu7MZKOY0-20" value="Movie&lt;div&gt;Selection&lt;/div&gt;" style="image;aspect=fixed;perimeter=ellipsePerimeter;html=1;align=center;shadow=0;dashed=0;spacingTop=3;image=img/lib/active_directory/home_page.svg;" vertex="1" parent="1">
          <mxGeometry x="299" y="280" width="50" height="45" as="geometry" />
        </mxCell>
        <mxCell id="Oippb7x4uc9pu7MZKOY0-21" style="edgeStyle=orthogonalEdgeStyle;rounded=0;orthogonalLoop=1;jettySize=auto;html=1;entryX=0.5;entryY=1;entryDx=0;entryDy=0;" edge="1" parent="1" source="Oippb7x4uc9pu7MZKOY0-54" target="Oippb7x4uc9pu7MZKOY0-20">
          <mxGeometry relative="1" as="geometry">
            <mxPoint x="324" y="418" as="targetPoint" />
          </mxGeometry>
        </mxCell>
        <mxCell id="Oippb7x4uc9pu7MZKOY0-22" style="edgeStyle=orthogonalEdgeStyle;rounded=0;orthogonalLoop=1;jettySize=auto;html=1;" edge="1" parent="1" source="Oippb7x4uc9pu7MZKOY0-52" target="Oippb7x4uc9pu7MZKOY0-12">
          <mxGeometry relative="1" as="geometry" />
        </mxCell>
        <mxCell id="Oippb7x4uc9pu7MZKOY0-23" style="edgeStyle=orthogonalEdgeStyle;rounded=0;orthogonalLoop=1;jettySize=auto;html=1;" edge="1" parent="1" source="Oippb7x4uc9pu7MZKOY0-25" target="Oippb7x4uc9pu7MZKOY0-15">
          <mxGeometry relative="1" as="geometry" />
        </mxCell>
        <mxCell id="Oippb7x4uc9pu7MZKOY0-24" style="edgeStyle=orthogonalEdgeStyle;rounded=0;orthogonalLoop=1;jettySize=auto;html=1;" edge="1" parent="1" source="Oippb7x4uc9pu7MZKOY0-25" target="Oippb7x4uc9pu7MZKOY0-31">
          <mxGeometry relative="1" as="geometry">
            <Array as="points">
              <mxPoint x="588" y="598" />
            </Array>
          </mxGeometry>
        </mxCell>
        <mxCell id="Oippb7x4uc9pu7MZKOY0-25" value="TicketDB" style="image;aspect=fixed;perimeter=ellipsePerimeter;html=1;align=center;shadow=0;dashed=0;spacingTop=3;image=img/lib/active_directory/databases.svg;" vertex="1" parent="1">
          <mxGeometry x="118" y="550" width="97" height="95.06" as="geometry" />
        </mxCell>
        <mxCell id="Oippb7x4uc9pu7MZKOY0-26" value="Time Selection" style="image;aspect=fixed;perimeter=ellipsePerimeter;html=1;align=center;shadow=0;dashed=0;spacingTop=3;image=img/lib/active_directory/home_page.svg;" vertex="1" parent="1">
          <mxGeometry x="450" y="280" width="50" height="45" as="geometry" />
        </mxCell>
        <mxCell id="Oippb7x4uc9pu7MZKOY0-27" style="edgeStyle=orthogonalEdgeStyle;rounded=0;orthogonalLoop=1;jettySize=auto;html=1;entryX=0.5;entryY=0;entryDx=0;entryDy=0;" edge="1" parent="1" source="Oippb7x4uc9pu7MZKOY0-30" target="Oippb7x4uc9pu7MZKOY0-31">
          <mxGeometry relative="1" as="geometry" />
        </mxCell>
        <mxCell id="Oippb7x4uc9pu7MZKOY0-28" value="Payment" style="edgeLabel;html=1;align=center;verticalAlign=middle;resizable=0;points=[];" vertex="1" connectable="0" parent="Oippb7x4uc9pu7MZKOY0-27">
          <mxGeometry x="0.0222" y="-1" relative="1" as="geometry">
            <mxPoint as="offset" />
          </mxGeometry>
        </mxCell>
        <mxCell id="Oippb7x4uc9pu7MZKOY0-29" style="edgeStyle=orthogonalEdgeStyle;rounded=0;orthogonalLoop=1;jettySize=auto;html=1;entryX=0.5;entryY=1;entryDx=0;entryDy=0;" edge="1" parent="1" source="Oippb7x4uc9pu7MZKOY0-30" target="Oippb7x4uc9pu7MZKOY0-37">
          <mxGeometry relative="1" as="geometry" />
        </mxCell>
        <mxCell id="Oippb7x4uc9pu7MZKOY0-30" value="Seat Selection" style="image;aspect=fixed;perimeter=ellipsePerimeter;html=1;align=center;shadow=0;dashed=0;spacingTop=3;image=img/lib/active_directory/home_page.svg;" vertex="1" parent="1">
          <mxGeometry x="570" y="280" width="50" height="45" as="geometry" />
        </mxCell>
        <mxCell id="Oippb7x4uc9pu7MZKOY0-31" value="Pay Page" style="image;aspect=fixed;perimeter=ellipsePerimeter;html=1;align=center;shadow=0;dashed=0;spacingTop=3;image=img/lib/active_directory/home_page.svg;" vertex="1" parent="1">
          <mxGeometry x="565" y="507" width="50" height="45" as="geometry" />
        </mxCell>
        <mxCell id="Oippb7x4uc9pu7MZKOY0-32" value="" style="endArrow=classic;html=1;rounded=0;" edge="1" parent="1">
          <mxGeometry width="50" height="50" relative="1" as="geometry">
            <mxPoint x="219" y="484.21" as="sourcePoint" />
            <mxPoint x="299" y="484.21" as="targetPoint" />
            <Array as="points">
              <mxPoint x="239" y="484.21" />
            </Array>
          </mxGeometry>
        </mxCell>
        <mxCell id="Oippb7x4uc9pu7MZKOY0-33" value="MovieDB" style="image;aspect=fixed;perimeter=ellipsePerimeter;html=1;align=center;shadow=0;dashed=0;spacingTop=3;image=img/lib/active_directory/databases.svg;" vertex="1" parent="1">
          <mxGeometry x="362" y="127.46" width="83" height="81.34" as="geometry" />
        </mxCell>
        <mxCell id="Oippb7x4uc9pu7MZKOY0-34" value="" style="endArrow=classic;startArrow=classic;html=1;rounded=0;" edge="1" parent="1">
          <mxGeometry width="50" height="50" relative="1" as="geometry">
            <mxPoint x="330" y="278.8" as="sourcePoint" />
            <mxPoint x="370" y="208.8" as="targetPoint" />
          </mxGeometry>
        </mxCell>
        <mxCell id="Oippb7x4uc9pu7MZKOY0-35" value="" style="endArrow=classic;startArrow=classic;html=1;rounded=0;" edge="1" parent="1">
          <mxGeometry width="50" height="50" relative="1" as="geometry">
            <mxPoint x="470" y="280" as="sourcePoint" />
            <mxPoint x="440" y="200" as="targetPoint" />
            <Array as="points">
              <mxPoint x="460" y="250" />
            </Array>
          </mxGeometry>
        </mxCell>
        <mxCell id="Oippb7x4uc9pu7MZKOY0-36" style="edgeStyle=orthogonalEdgeStyle;rounded=0;orthogonalLoop=1;jettySize=auto;html=1;entryX=0.5;entryY=0;entryDx=0;entryDy=0;" edge="1" parent="1" source="Oippb7x4uc9pu7MZKOY0-37" target="Oippb7x4uc9pu7MZKOY0-30">
          <mxGeometry relative="1" as="geometry" />
        </mxCell>
        <mxCell id="Oippb7x4uc9pu7MZKOY0-37" value="SeatDB" style="image;aspect=fixed;perimeter=ellipsePerimeter;html=1;align=center;shadow=0;dashed=0;spacingTop=3;image=img/lib/active_directory/databases.svg;" vertex="1" parent="1">
          <mxGeometry x="565" y="150" width="60" height="58.8" as="geometry" />
        </mxCell>
        <mxCell id="Oippb7x4uc9pu7MZKOY0-38" value="" style="endArrow=classic;html=1;rounded=0;" edge="1" parent="1">
          <mxGeometry width="50" height="50" relative="1" as="geometry">
            <mxPoint x="255" y="597.11" as="sourcePoint" />
            <mxPoint x="215" y="597.11" as="targetPoint" />
          </mxGeometry>
        </mxCell>
        <mxCell id="Oippb7x4uc9pu7MZKOY0-39" value="" style="endArrow=none;html=1;rounded=0;" edge="1" parent="1">
          <mxGeometry width="50" height="50" relative="1" as="geometry">
            <mxPoint x="324" y="577" as="sourcePoint" />
            <mxPoint x="686" y="575" as="targetPoint" />
          </mxGeometry>
        </mxCell>
        <mxCell id="Oippb7x4uc9pu7MZKOY0-40" value="" style="endArrow=none;html=1;rounded=0;" edge="1" parent="1">
          <mxGeometry width="50" height="50" relative="1" as="geometry">
            <mxPoint x="686" y="576" as="sourcePoint" />
            <mxPoint x="686" y="300" as="targetPoint" />
          </mxGeometry>
        </mxCell>
        <mxCell id="Oippb7x4uc9pu7MZKOY0-41" value="" style="endArrow=classic;html=1;rounded=0;" edge="1" parent="1" target="Oippb7x4uc9pu7MZKOY0-30">
          <mxGeometry width="50" height="50" relative="1" as="geometry">
            <mxPoint x="686" y="302" as="sourcePoint" />
            <mxPoint x="625" y="302" as="targetPoint" />
          </mxGeometry>
        </mxCell>
        <mxCell id="Oippb7x4uc9pu7MZKOY0-42" value="" style="endArrow=classic;html=1;rounded=0;exitX=0.04;exitY=0;exitDx=0;exitDy=0;exitPerimeter=0;" edge="1" parent="1" source="Oippb7x4uc9pu7MZKOY0-52">
          <mxGeometry width="50" height="50" relative="1" as="geometry">
            <mxPoint x="297" y="409" as="sourcePoint" />
            <mxPoint x="207" y="320" as="targetPoint" />
          </mxGeometry>
        </mxCell>
        <mxCell id="Oippb7x4uc9pu7MZKOY0-43" value="" style="endArrow=classic;html=1;rounded=0;exitX=0.888;exitY=0.022;exitDx=0;exitDy=0;entryX=0;entryY=0.75;entryDx=0;entryDy=0;exitPerimeter=0;" edge="1" parent="1" source="Oippb7x4uc9pu7MZKOY0-52" target="Oippb7x4uc9pu7MZKOY0-26">
          <mxGeometry width="50" height="50" relative="1" as="geometry">
            <mxPoint x="474" y="456" as="sourcePoint" />
            <mxPoint x="384" y="367" as="targetPoint" />
          </mxGeometry>
        </mxCell>
        <mxCell id="Oippb7x4uc9pu7MZKOY0-44" value="&lt;b&gt;User Accounts&lt;/b&gt;&lt;div&gt;&lt;b&gt;Payment History&lt;/b&gt;&lt;/div&gt;&lt;div&gt;&lt;b&gt;Reward Points&lt;/b&gt;&lt;/div&gt;" style="text;html=1;align=center;verticalAlign=middle;whiteSpace=wrap;rounded=0;" vertex="1" parent="1">
          <mxGeometry x="35" y="42" width="60" height="30" as="geometry" />
        </mxCell>
        <mxCell id="Oippb7x4uc9pu7MZKOY0-45" value="&lt;b&gt;Ticket information&lt;/b&gt;&lt;div&gt;&lt;b&gt;shoppingcart&lt;/b&gt;&lt;/div&gt;" style="text;html=1;align=center;verticalAlign=middle;whiteSpace=wrap;rounded=0;" vertex="1" parent="1">
          <mxGeometry x="8" y="578" width="110" height="30" as="geometry" />
        </mxCell>
        <mxCell id="Oippb7x4uc9pu7MZKOY0-46" value="" style="endArrow=classic;html=1;rounded=0;" edge="1" parent="1">
          <mxGeometry width="50" height="50" relative="1" as="geometry">
            <mxPoint x="359" y="302" as="sourcePoint" />
            <mxPoint x="332" y="302" as="targetPoint" />
          </mxGeometry>
        </mxCell>
        <mxCell id="Oippb7x4uc9pu7MZKOY0-47" value="" style="endArrow=classic;startArrow=classic;html=1;rounded=0;entryX=0;entryY=0.5;entryDx=0;entryDy=0;" edge="1" parent="1" target="Oippb7x4uc9pu7MZKOY0-30">
          <mxGeometry width="50" height="50" relative="1" as="geometry">
            <mxPoint x="494" y="301" as="sourcePoint" />
            <mxPoint x="570" y="299" as="targetPoint" />
          </mxGeometry>
        </mxCell>
        <mxCell id="Oippb7x4uc9pu7MZKOY0-48" value="Seat" style="edgeLabel;html=1;align=center;verticalAlign=middle;resizable=0;points=[];" vertex="1" connectable="0" parent="Oippb7x4uc9pu7MZKOY0-47">
          <mxGeometry x="-0.1759" y="1" relative="1" as="geometry">
            <mxPoint as="offset" />
          </mxGeometry>
        </mxCell>
        <mxCell id="Oippb7x4uc9pu7MZKOY0-49" value="&lt;b&gt;Available Seats,&lt;/b&gt;&lt;div&gt;&lt;b&gt;Seat Types&lt;/b&gt;&lt;/div&gt;" style="text;html=1;align=center;verticalAlign=middle;whiteSpace=wrap;rounded=0;" vertex="1" parent="1">
          <mxGeometry x="565" y="127" width="60" height="30" as="geometry" />
        </mxCell>
        <mxCell id="Oippb7x4uc9pu7MZKOY0-50" value="&lt;b&gt;List of Movies,&lt;/b&gt;&lt;div&gt;&lt;b&gt;Theater locations&lt;/b&gt;&lt;/div&gt;" style="text;html=1;align=center;verticalAlign=middle;whiteSpace=wrap;rounded=0;" vertex="1" parent="1">
          <mxGeometry x="373.5" y="97.46000000000001" width="60" height="30" as="geometry" />
        </mxCell>
        <mxCell id="Oippb7x4uc9pu7MZKOY0-51" value="" style="endArrow=none;html=1;rounded=0;" edge="1" parent="1" target="Oippb7x4uc9pu7MZKOY0-52">
          <mxGeometry width="50" height="50" relative="1" as="geometry">
            <mxPoint x="324" y="578" as="sourcePoint" />
            <mxPoint x="323.5" y="446" as="targetPoint" />
          </mxGeometry>
        </mxCell>
        <mxCell id="Oippb7x4uc9pu7MZKOY0-52" value="Admin Page" style="image;aspect=fixed;perimeter=ellipsePerimeter;html=1;align=center;shadow=0;dashed=0;spacingTop=3;image=img/lib/active_directory/home_page.svg;" vertex="1" parent="1">
          <mxGeometry x="299" y="462" width="50" height="45" as="geometry" />
        </mxCell>
        <mxCell id="Oippb7x4uc9pu7MZKOY0-53" value="" style="edgeStyle=orthogonalEdgeStyle;rounded=0;orthogonalLoop=1;jettySize=auto;html=1;" edge="1" parent="1" source="Oippb7x4uc9pu7MZKOY0-52" target="Oippb7x4uc9pu7MZKOY0-54">
          <mxGeometry relative="1" as="geometry">
            <mxPoint x="324" y="441" as="sourcePoint" />
            <mxPoint x="324" y="418" as="targetPoint" />
          </mxGeometry>
        </mxCell>
        <mxCell id="Oippb7x4uc9pu7MZKOY0-54" value="Theater&lt;div&gt;&lt;br&gt;&lt;/div&gt;" style="image;aspect=fixed;perimeter=ellipsePerimeter;html=1;align=center;shadow=0;dashed=0;spacingTop=3;image=img/lib/active_directory/home_page.svg;" vertex="1" parent="1">
          <mxGeometry x="299" y="365" width="50" height="45" as="geometry" />
        </mxCell>
        <mxCell id="Oippb7x4uc9pu7MZKOY0-55" value="" style="endArrow=classic;html=1;rounded=0;exitX=1;exitY=0.5;exitDx=0;exitDy=0;entryX=0.25;entryY=0;entryDx=0;entryDy=0;" edge="1" parent="1" source="Oippb7x4uc9pu7MZKOY0-52" target="Oippb7x4uc9pu7MZKOY0-31">
          <mxGeometry width="50" height="50" relative="1" as="geometry">
            <mxPoint x="376" y="509" as="sourcePoint" />
            <mxPoint x="426" y="459" as="targetPoint" />
            <Array as="points">
              <mxPoint x="579" y="487" />
            </Array>
          </mxGeometry>
        </mxCell>
        <mxCell id="Oippb7x4uc9pu7MZKOY0-56" value="" style="endArrow=classic;html=1;rounded=0;exitX=0;exitY=0.5;exitDx=0;exitDy=0;entryX=0.25;entryY=1;entryDx=0;entryDy=0;" edge="1" parent="1" source="Oippb7x4uc9pu7MZKOY0-31" target="Oippb7x4uc9pu7MZKOY0-10">
          <mxGeometry width="50" height="50" relative="1" as="geometry">
            <mxPoint x="298" y="407" as="sourcePoint" />
            <mxPoint x="26" y="530" as="targetPoint" />
            <Array as="points">
              <mxPoint x="43" y="530" />
            </Array>
          </mxGeometry>
        </mxCell>
        <mxCell id="Oippb7x4uc9pu7MZKOY0-57" value="" style="endArrow=classic;html=1;rounded=0;exitX=0.5;exitY=0;exitDx=0;exitDy=0;entryX=0.58;entryY=0.992;entryDx=0;entryDy=0;entryPerimeter=0;" edge="1" parent="1" source="Oippb7x4uc9pu7MZKOY0-12" target="Oippb7x4uc9pu7MZKOY0-10">
          <mxGeometry width="50" height="50" relative="1" as="geometry">
            <mxPoint x="298" y="268" as="sourcePoint" />
            <mxPoint x="348" y="218" as="targetPoint" />
          </mxGeometry>
        </mxCell>
      </root>
    </mxGraphModel>
  </diagram>
</mxfile>
